<svg width="32" height="32" viewBox="0 0 32 32" fill="none" xmlns="http://www.w3.org/2000/svg">
<path d="M20 25.985C19.492 26.189 18.967 26.36 18.424 26.485L18.204 29.351C18.176 29.717 17.87 30 17.503 30H14.496C14.129 30 13.824 29.717 13.796 29.352L13.576 26.486C12.398 26.215 11.297 25.75 10.302 25.127L8.117 27C7.838 27.239 7.423 27.223 7.163 26.963L5.037 24.837C4.777 24.577 4.762 24.162 5 23.883L6.873 21.698C6.251 20.703 5.786 19.602 5.514 18.424L2.648 18.204C2.283 18.176 2 17.87 2 17.503V14.496C2 14.129 2.283 13.824 2.648 13.796L5.514 13.576C5.785 12.398 6.25 11.297 6.873 10.302L5.001 8.117C4.762 7.839 4.778 7.423 5.037 7.164L7.163 5.038C7.422 4.779 7.838 4.763 8.117 5.001L10.302 6.874C11.297 6.252 12.398 5.787 13.576 5.515L13.796 2.649C13.824 2.283 14.13 2 14.497 2H17.504C17.871 2 18.176 2.283 18.204 2.648L18.217 2.815C17.441 4.006 17 5.41 17 6.895C17 8.097 17.284 9.249 17.803 10.277C17.234 10.097 16.628 10 16 10C12.686 10 10 12.686 10 16C10 19.314 12.686 22 16 22C17.539 22 18.938 21.416 20 20.463V25.985Z" fill="#FA6422"/>
<path d="M27 11.789V27.5001C27 28.8811 25.881 30.0001 24.5 30.0001C23.119 30.0001 22 28.8811 22 27.5001V11.789C20.22 10.878 19 9.03105 19 6.89405C19 4.82905 20.14 3.03305 21.824 2.09305C21.901 2.05105 22 2.11105 22 2.19905V8.00005L24.5 9.00005L27 8.00005V2.19905C27 2.11105 27.099 2.05105 27.176 2.09405C28.86 3.03405 30 4.82905 30 6.89505C30 9.03105 28.78 10.879 27 11.789Z" fill="#FA6422"/>
</svg>
