<svg width="256" height="256" viewBox="0 0 256 256" fill="none" xmlns="http://www.w3.org/2000/svg">
<path d="M160 207.88C155.936 209.512 151.736 210.88 147.392 211.88L145.632 234.808C145.408 237.736 142.96 240 140.024 240H115.968C113.032 240 110.592 237.736 110.368 234.816L108.608 211.888C99.184 209.72 90.376 206 82.416 201.016L64.936 216C62.704 217.912 59.384 217.784 57.304 215.704L40.296 198.696C38.216 196.616 38.096 193.296 40 191.064L54.984 173.584C50.008 165.624 46.288 156.816 44.112 147.392L21.184 145.632C18.264 145.408 16 142.96 16 140.024V115.968C16 113.032 18.264 110.592 21.184 110.368L44.112 108.608C46.28 99.184 50 90.376 54.984 82.416L40.008 64.936C38.096 62.712 38.224 59.384 40.296 57.312L57.304 40.304C59.376 38.232 62.704 38.104 64.936 40.008L82.416 54.992C90.376 50.016 99.184 46.296 108.608 44.12L110.368 21.192C110.592 18.264 113.04 16 115.976 16H140.032C142.968 16 145.408 18.264 145.632 21.184L145.736 22.52C139.528 32.048 136 43.28 136 55.16C136 64.776 138.272 73.992 142.424 82.216C137.872 80.776 133.024 80 128 80C101.488 80 80 101.488 80 128C80 154.512 101.488 176 128 176C140.312 176 151.504 171.328 160 163.704V207.88Z" fill="#FA6422"/>
<path d="M216 94.312V220C216 231.048 207.048 240 196 240C184.952 240 176 231.048 176 220V94.312C161.76 87.024 152 72.248 152 55.152C152 38.632 161.12 24.264 174.592 16.744C175.208 16.408 176 16.888 176 17.592V64L196 72L216 64V17.592C216 16.888 216.792 16.408 217.408 16.752C230.88 24.272 240 38.632 240 55.16C240 72.248 230.24 87.032 216 94.312Z" fill="#FA6422"/>
</svg>
